<svg xmlns="http://www.w3.org/2000/svg" width="640" height="400" viewBox="0 0 640 400" role="img" aria-labelledby="title desc"><title id="title">Validation threshold evidence</title><desc id="desc">Sensitivity and specificity across exact validation probability thresholds. The locked threshold is 0.08513264. Exact counts are in threshold-table.csv.</desc><rect width="640" height="400" fill="white"/><polyline points="211.59,60.00 220.48,60.00 224.44,60.00 225.84,100.00 230.80,100.00 235.79,100.00 238.99,100.00 240.67,100.00 241.61,100.00 243.21,100.00 246.18,100.00 246.77,100.00 247.31,100.00 253.16,140.00 253.64,140.00 256.53,140.00 259.56,140.00 268.64,140.00 269.53,140.00 271.83,140.00 273.77,180.00 275.23,180.00 279.78,220.00 282.70,260.00 293.01,260.00 301.91,260.00 308.69,260.00 337.57,260.00 357.72,260.00 359.67,260.00 381.24,300.00 421.25,300.00 435.19,300.00 443.79,300.00 447.56,300.00 493.37,340.00" fill="none" stroke="#1f49b6" stroke-width="3"/><polyline points="211.59,340.00 220.48,331.76 224.44,323.53 225.84,319.41 230.80,311.18 235.79,302.94 238.99,294.71 240.67,286.47 241.61,278.24 243.21,270.00 246.18,261.76 246.77,249.41 247.31,241.18 253.16,237.06 253.64,228.82 256.53,220.59 259.56,212.35 268.64,204.12 269.53,195.88 271.83,187.65 273.77,183.53 275.23,162.94 279.78,158.82 282.70,154.71 293.01,146.47 301.91,138.24 308.69,130.00 337.57,121.76 357.72,113.53 359.67,105.29 381.24,101.18 421.25,92.94 435.19,84.71 443.79,76.47 447.56,68.24 493.37,64.12" fill="none" stroke="#0f766e" stroke-width="3"/><line x1="272.83" y1="50" x2="272.83" y2="340" stroke="#d97706" stroke-width="3"/><text x="250" y="385" font-size="16">Threshold</text><text x="18" y="220" font-size="16" transform="rotate(-90 18 220)">Metric value</text><text x="420" y="70" fill="#1f49b6">Sensitivity</text><text x="420" y="92" fill="#0f766e">Specificity</text></svg>
